<?xml version="1.0" encoding="utf-8"?>
<!-- Generator: Adobe Illustrator 22.0.0, SVG Export Plug-In . SVG Version: 6.00 Build 0)  -->
<svg version="1.1" id="Layer_1" xmlns="http://www.w3.org/2000/svg" xmlns:xlink="http://www.w3.org/1999/xlink" x="0px" y="0px"
	 viewBox="0 0 202 240" style="enable-background:new 0 0 202 240;" xml:space="preserve">
<g>
	<path d="M201.7,190c-1.1-2.3-17-37.6-18.1-40c-1.5-3.2-2.9-6.5-4.4-9.7c-1.4-3-2.9-5.9-4.2-8.8c-1.9-4.2-3.6-8.4-5.6-12.6
		c-3.3-7.1-8.4-12.7-15.1-16.8c-2.6-1.6-3.3-4-3.3-6.7c0-0.5,0.2-1,0.5-1.4c1.8-2.5,3.7-4.9,5.4-7.4c1.7-2.5,3-5.2,3-8.3
		c0-2.2,0.1-4.5,0-6.7c-0.2-2.1-1-4.2-2.1-6c-1.8-2.6-3.8-5.1-5.5-7.8c-0.8-1.3-1.5-2.8-1.7-4.3c-0.4-2.9-0.2-5.9,1.6-8.4
		c1.4-2,3-3.9,4.4-5.9c1.7-2.4,2.9-5,3.4-8c0.1-0.9,0.6-1.1,1.4-1.1c1.3,0,35.2-1,36.5-1c2.5-0.1,4.4-2,4.3-4.2c-0.1-1.7-1.8-4-4-4
		c-1.5,0-35.6,1.1-37.1,1.2c-1,0.1-1.5-0.3-1.8-1.3c-0.4-1.2-1-2.2-1.5-3.3c-0.1-0.3-0.3-0.8-0.2-0.9c0.3-0.2,0.7-0.4,1-0.4
		c2.3,0,37.1,1.3,39.4,1.3c2,0,4.1-1.8,4.1-3.7c0.1-2.6-1.5-4.4-4-4.5c-4.2-0.1-41-1.3-45.2-1.4c-1.6,0-2.5-1-2.5-2.9
		c0-1.5,0.1-3-1-4.2c-0.3-0.3-0.5-0.6-0.8-0.8c-1.6,0-3.2,0-4.8,0c-1.4,1.5-2,3.3-1.4,5.4c0.5,1.7,0.2,2-1.5,2
		c-3.8-0.1-7.6-0.2-11.4-0.2c-0.7,0-1.1-0.3-1.3-1c-0.2-0.8-0.5-1.6-0.4-2.5c0-1.5-0.5-2.7-1.5-3.7c-1.7,0-3.4,0-5,0
		c-1.4,1.5-1.7,3.4-1.3,5.3c0.2,1.1-0.3,1.4-1.2,1.4c-3.8,0-7.7-0.1-11.5-0.1c-1.4,0-1.6-0.2-1.7-1.7c-0.1-1.9-0.4-3.6-1.9-4.9
		c-1.5,0-3,0-4.6,0c-0.4,0.4-0.9,0.8-1.2,1.2c-0.9,1-0.5,2.3-0.5,3.4c0,1-0.2,1.5-1.3,1.4C90.6,5.9,85,5.8,79.5,5.6
		C71.7,5.4,63.8,5.1,56,4.8c-8.7-0.2-8.4-0.5-17.1-0.7c-8.5-0.2-9.1-0.5-17.6-0.7c-1.4,0-2.9,0-4.3,0C9.6,3.2,11.3,2.8,4,2.7
		C3.1,2.7,2.1,3,1.4,3.5C-0.7,5.1-0.2,8.9,1.7,10c1.1,0.6,2.1,0.5,3.2,0.6c8.9,0.4,8.9,0.7,17.8,1.1c7.7,0.3,7.4,0.5,15.1,0.7
		C48.4,12.7,50,13,60.5,13.2c4.3,0.1,8.6,0.2,12.8,0.3c7.9,0.2,15.9,0.6,23.8,0.7c2.1,0,4,0.1,4.9,2.4c0.1,0.1,0.2,0.2,0.3,0.4
		c1.2,1.6,2.4,3.2,3.5,4.8c0.7,1.1,0.3,1.7-1,1.7c-1.7,0-3.4,0-5.1,0.1c-2.8,0.1-5.6,0.3-8.4,0.4c-6.8,0.2-13.7,0.4-20.5,0.6
		c-8.5,0.3-17.1,0.5-25.6,0.8c-6.9,0.2-4.9,0.4-11.8,0.6c-6.8,0.2-5.8,0.4-12.6,0.6C11.9,26.8,12,27.1,3,27.3c-0.2,0-0.5,0-0.7,0.1
		c-1.8,0.9-2.6,2.6-2.3,4.7c0.2,1.6,1.5,2.8,3.4,3c1.3,0.1,2.5,0,3.8,0c6.3-0.2,3.6-0.4,9.9-0.6c6.1-0.2,4.3-0.3,10.4-0.5
		c6.6-0.2,4.1-0.3,10.6-0.5c4-0.1,8.1,0,12.1-0.1c3,0,6-0.1,8.9-0.2c1.5-0.1,2.9-0.4,4.4-0.5c4.9-0.1,9.8-0.2,14.7-0.3
		c0.9,0,1.8-0.1,2.6-0.1c2.8-0.1,5.6-0.3,8.4-0.4c5.2-0.2,10.4-0.3,15.6-0.4c0.3,0,0.7,0.1,0.9,0.3c0.1,0.2,0.1,0.7,0,1
		c-0.6,0.9-1.2,1.9-1.9,2.7c-2.2,3-4.7,5.6-5.6,9.4c-0.7,3.1-1.1,6.1-0.8,9.2c0.1,1,0.2,2,0.3,2.9c0.1,0.7-0.2,1-0.9,0.7
		c-0.9-0.3-1.8-0.5-2.7-0.9c-3.5-1.3-7-2-10.7-1.9c-1,0-2,0.5-3.1,0.4c-4.4-0.1-8.4,1.3-12.5,2.5c-4.8,1.4-8.8,4.2-12.7,7.1
		c-3.7,2.8-7,6.2-9.3,10.3c-1.4,2.6-2.9,5.1-4,7.8c-1.3,3.1-2,6.5-2.5,9.8c-0.7,4.5-0.8,9,0.3,13.4c0.2,1,0,1.7-0.6,2.4
		c-2.9,3-5.1,6.4-6.9,10.2c-1.8,4-3.5,8-5.4,12c-1.8,3.9-3.7,7.7-5.5,11.6c-2.1,4.4-18.7,39-20.8,43.5c-0.6,1.2-0.8,2.5-0.3,3.8
		c0.5,1.5,3.2,3.3,4.5,2.7c1.3-0.6,2.5-1.4,3.2-2.9c0.8-2,16.4-34,17.3-35.9c1-2.2,2.1-4.4,3.2-6.8c0.1,0.2,0.2,0.3,0.2,0.4
		c0,17.4-0.1,34.8,0,52.2c0,2.9,0.1,5.8,0.7,8.6c3.2,14.7,11.8,24.8,25.9,30.1c1.4,0.6,2.9,1,4.4,1.4c27.5,0,55,0,82.6,0
		c1.4-0.5,2.9-0.9,4.3-1.4c12.4-4.6,20.7-13.1,24.9-25.6c1.4-4.1,1.9-8.4,1.9-12.8c0-17.4,0-34.7,0-52.1c0-0.2,0-0.3,0-0.5
		c0.1,0,0.1,0,0.2-0.1c1,2.1,2,4.3,3,6.4c0.9,2,16.7,37,17.6,39c1.2,2.7,4.2,3.7,6.6,1.7C202,193.7,202.4,191.8,201.7,190z
		 M135.9,15.3c2.8,0.1,5.6,0.3,8.4,0.2c1.5,0,2.6,0.4,3.4,1.7c0.7,1.2,1.7,2.2,2.5,3.3c0.3,0.4,0.4,0.9,0.3,1.4
		c0,0.1-0.7,0.3-1.1,0.3c-2.7,0-5.4,0-8.1,0c0,0.1,0,0.2,0,0.3c-0.8,0-1.5-0.1-2.3,0c-1.1,0.2-1.7-0.4-2.1-1.3
		c-0.6-1.5-1.4-2.9-2-4.4C134.3,15.9,134.8,15.3,135.9,15.3z M131.8,42c2.3-2.7,4.1-5.7,4.8-9.3c0.3-1.5,0.9-1.9,2.5-2
		c3.7-0.1,7.5-0.3,11.2-0.5c0.4,0,1,0.1,1.1,0.3c0.1,0.5,0.2,1.2,0,1.6c-1.2,1.8-2.6,3.5-3.7,5.4c-1.5,2.4-2.9,4.9-4,7.6
		c-1.2,2.9-1.2,6-0.9,9.2c0.3,4.5,2.5,7.8,5.1,11.2c1.2,1.5,2.4,3.1,3.3,4.8c1.4,2.7,1.6,5.6,0.8,8.5c-0.7,2.7-2.6,4.6-4.2,6.8
		c-1.2,1.7-2.5,3.4-3.4,5.3c-0.7,1.5-1,3.2-1.4,4.9c-0.1,0.5-0.1,0.9-0.1,1.1c-4.7-0.3-9.3-0.7-14.1-1c-0.2-1,0.1-1.9,0.9-2.8
		c2.5-3.1,5.5-6.1,6.9-9.9c1.5-4.1,1.9-8.3,0.7-12.6c-0.5-1.8-1.3-3.5-2-5.1c-0.7-1.8-2.2-3.3-3.5-4.8c-1.8-2.3-3.6-4.7-3.7-7.8
		C127.7,48.6,129,45.1,131.8,42z M113.4,14.8c3,0.1,6,0.2,9,0.3c0.7,0,1.2,0.2,1.7,0.9c1.2,1.7,2.5,3.3,3.7,4.9
		c0.4,0.5,0.6,1.1,1,1.9c-0.8,0.1-1.4,0.3-1.9,0.3c-3.6,0-7.3,0-10.9,0c-0.9,0-1.1-0.3-1.4-1.2c-0.6-1.8-1.5-3.5-2.3-5.3
		c-0.2-0.5-0.3-1.1-0.4-1.7C112.3,14.9,112.9,14.8,113.4,14.8z M105.7,49.3c0.2-1.8,0.7-3.4,1.9-5c2.2-2.9,4.7-5.5,6.2-8.8
		c0.4-0.9,0.8-1.9,0.9-2.8c0.1-1.2,0.8-1.4,1.8-1.4c1.3,0,2.6,0,4,0c0,0,0,0,0,0.1c2.4-0.1,4.8-0.3,7.2-0.4c1.4-0.1,1.7,0.6,1,1.8
		c-0.7,1.1-1.3,2.3-2.2,3.3c-2,2.1-3,4.8-4.6,7.2c-1.8,2.6-1.7,5.5-1.8,8.4c0,2.1,0.3,4.3,0.8,6.3c0.4,1.6,1.4,3.1,2.3,4.5
		c1.3,2,3,3.8,4.3,5.8c0.7,1.1,1.2,2.3,1.5,3.6c0.4,1.8,0.9,3.6,0.7,5.4c-0.3,3-1.9,5.6-4,7.8c-0.6,0.6-1.2,0.4-1.5-0.4
		c-0.9-2.2-1.8-4.5-3-6.6c-1.3-2.3-3.1-4.3-4.4-6.6c-2-3.7-4.5-6.9-6.9-10.2c-1-1.4-2.3-2.7-3-4.2c-0.7-1.5-0.9-3.3-1.2-5
		C105.4,51,105.6,50.2,105.7,49.3z M47.3,97.7c0.1-1.9,0.2-3.8,0.5-5.6c0.4-2,1-4.1,1.9-6c1.3-2.8,2.9-5.5,4.6-8.2
		c2.4-4,6.2-6.5,9.9-9c2.8-1.9,6-3.3,9.3-4c1.2-0.3,2.4-0.5,3.6-0.7c4.4-0.8,8.8-0.7,13.2,0.3c3.8,0.9,7.5,2.3,10.8,4.3
		c5.2,3.1,9.4,7.3,12.5,12.6c2.1,3.7,3.5,7.6,4.4,11.7c0.2,1,0.7,1.9,1.2,3c-2.7,0-5.2,0-7.7,0c-0.2,0-0.6-0.6-0.7-1
		c-0.5-1.9-0.7-3.9-1.5-5.7c-0.9-2.2-2.1-4.4-3.4-6.3c-3-4.3-6.9-7.4-11.7-9.6c-3.1-1.4-6.4-2.2-9.6-2.4c-3-0.2-6,0.1-8.9,1
		c-2.8,0.8-5.4,1.8-7.8,3.3c-3.5,2.2-6.4,5-8.7,8.4c-2.1,3.2-3.5,6.7-4.2,10.5c-0.2,1.3-0.5,2.7-0.8,4c-0.1,0.2-0.2,0.6-0.4,0.7
		c-2,1-4,1.9-6.4,3C47.4,100.4,47.2,99,47.3,97.7z M102.5,96.1c-1.3,0-2.5,0-3.8,0c-0.3,0-0.6,0-1,0c-2.5,0-2.5,0-3.4-2.3
		c-0.9-2.1-2.4-3.7-4.3-4.9c-0.9-0.6-1.9-1.2-2.9-1.5c-4.1-1.5-8.1-0.9-11.6,1.4c-2.1,1.4-4.1,3.3-4.4,6.2c0,0.3-0.2,0.7-0.3,1.1
		c-2.7,0.1-5.2,0.3-7.8,0.4c0.1-6.6,6.6-15.2,16.1-17C90.1,77.4,101.3,85,102.5,96.1z M160.4,200.5c0,12.2-7.1,22.1-18.5,26.1
		c-3,1-6.1,1.4-9.2,1.4c-21.2,0-42.5,0.1-63.7,0c-11.6-0.1-20.1-5.5-25.3-16c-1.8-3.7-2.4-7.6-2.4-11.6c0-21.3-0.1-42.6,0-63.8
		c0.1-11.6,5.5-20,15.9-25.2c3.7-1.8,7.8-2.5,11.9-2.5c10.6,0,21.2,0,31.8,0c10.6,0,21.1,0,31.7,0c8.4,0,15.5,3,21.1,9.4
		c4.6,5.2,6.7,11.3,6.7,18.2C160.5,157.8,160.5,179.2,160.4,200.5z"/>
	<path d="M100.9,131.2c-20.5,0.1-37.3,16.8-37.3,37.3c0,20.5,16.8,37.3,37.3,37.3c20.5,0.1,37.5-17,37.4-37.4
		C138.1,147.8,121.3,131.1,100.9,131.2z M100.9,192.9c-13.5,0-24.4-11-24.4-24.5c0-13.4,11-24.4,24.4-24.5
		c13.4,0,24.4,10.9,24.5,24.4C125.4,181.9,114.3,193,100.9,192.9z"/>
	<path d="M139.7,120.3c-5.2,0-9.4,4.3-9.4,9.4c0,5.2,4.3,9.4,9.4,9.4c5.2,0,9.4-4.3,9.4-9.4C149.2,124.5,144.9,120.3,139.7,120.3z"
		/>
</g>
</svg>
