<?xml version="1.0" encoding="utf-8"?>
<!-- Generator: Adobe Illustrator 22.0.0, SVG Export Plug-In . SVG Version: 6.00 Build 0)  -->
<svg version="1.1" id="Layer_1" xmlns="http://www.w3.org/2000/svg" xmlns:xlink="http://www.w3.org/1999/xlink" x="0px" y="0px"
	 viewBox="0 0 209 52.1" style="enable-background:new 0 0 209 52.1;" xml:space="preserve">
<style type="text/css">
	.st0{fill:#231F20;}
</style>
<g>
	<path class="st0" d="M208.1,27.3c-0.4,0.6-0.8,1.1-1.1,1.7c-0.4,0.9-0.7,1.9-1.2,2.7c-0.5,0.8-1.4,0.8-1.9,0
		c-0.5-0.9-1.1-1.9-1.2-2.9c-0.2-4.2-0.2-8.4-0.1-12.6c0-1.4-0.6-2.3-1.8-2.8c-0.4-0.2-0.7-0.4-1.1-0.5c-1.4-0.7-2.5-0.3-3,1.1
		c-0.8,2-1.4,4.1-2.1,6.1c-0.4,1.2-0.8,2.3-1.3,3.5c-0.1,0-0.3,0-0.4-0.1c-0.1-0.4-0.2-0.9-0.2-1.3c0-1.8,0-3.6-0.1-5.4
		c0-0.7-0.1-1.4-0.3-2.1c-0.3-1-2-2.2-3.2-2.1c-1.3,0-1.8,1-2.1,2c-0.5,1.4-1,2.9-1.5,4.3c-0.1,0.4-0.4,0.7-0.6,1
		c-0.1,0-0.3,0-0.4,0c-0.1-0.6-0.3-1.2-0.3-1.8c-0.1-1,0-1.9,0-2.9c0-1.5-1.5-2.8-2.9-2.5c-0.4,0.1-0.9,0.6-1.2,1
		c-0.2,0.4-0.2,0.9-0.2,1.4c0,3.6-0.1,7.3-0.1,10.9c0,2.1-0.6,4-1.9,5.6c-1.2,1.5-2.3,1.3-3.2-0.4c-0.2-0.4-0.3-0.8-0.3-1.3
		c-0.1-1-0.2-2-0.2-3c0-3.8,0.1-7.5,0.1-11.3c0-0.7-0.3-1.8-0.8-2c-0.8-0.4-2.1-0.6-2.8-0.2c-1,0.6-1.6,0.5-2.3-0.1
		c-2.5-1.8-5.2-1.4-7.1,0.9c-1.7,2.2-2.9,4.7-3,7.6c-0.1,2.2,0,4.3,0.1,6.5c0.1,1.5-0.3,2.8-1.4,3.8c-0.6,0.6-1.3,0.7-1.9,0.1
		c-0.5-0.4-0.9-1-1.1-1.5c-1.2-3.1-0.9-6.2-0.3-9.3c0.3-1.4,0.6-2.8,0.8-4.2c0.2-1.8-0.6-2.8-2.5-2.7c-1,0.1-2.1,0.3-3.1,0.5
		c-1.5,0.4-1.7,0.3-1.9-1.3c-0.2-1.6-1.7-2.5-3.2-1.7c-2,1-2.7,3.5-1.4,5.3c0.6,0.8,0.6,1.5,0.3,2.3c-0.2,0.6-0.4,1.2-0.6,1.8
		c-1,2.2-2.1,4.4-3.2,6.6c-0.1,0.2-0.6,0.5-0.7,0.4c-0.3-0.1-0.5-0.5-0.6-0.8c-0.1-0.3,0-0.6,0-1c0-3.6,0.1-7.3,0.1-10.9
		c0-0.8,0.1-1.8-0.9-2.2c-1-0.4-2.1-0.9-3.2,0c-0.8,0.7-1.5,0.4-2.2-0.3c-0.3-0.3-0.6-0.7-1-0.8c-2.1-0.5-4-0.3-5.5,1.4
		c-0.9,1-1.6,2.2-2.1,3.4c-1.3,3-1.5,6.3-1.4,9.5c0,1.3-0.1,2.6-0.4,3.8c-0.2,0.6-1,1.1-1.6,1.4c-0.8,0.3-1.5-0.2-1.8-1
		c-0.3-0.7-0.6-1.4-0.6-2.2c0-5.2,0-10.5,0-15.7c0-1.1,0.6-1.6,1.7-1.6c1.3,0,2.6,0,3.8-0.1c1-0.1,1.5-0.7,1.5-1.7
		c0-1-0.7-1.1-1.5-1.2c-1.1,0-2.2,0-3.2-0.1c-1.9-0.1-2.1-0.3-2-2.1c0-0.9,0.1-1.8,0.2-2.8c0.1-1.3-0.5-2-1.8-2.2
		c-0.4,0-0.9-0.1-1.3-0.1c-1.3,0-1.7,0.3-1.7,1.6c-0.1,1.3-0.1,2.6-0.2,4c-0.1,0.9-0.6,1.4-1.5,1.3c-0.9,0-1.8-0.1-2.6-0.1
		c-0.9,0-1.5,0.9-1.5,2.1c0,1,0.7,1.2,1.5,1.2c0.8,0,1.5,0,2.3,0c1.4,0,1.7,0.3,1.7,1.7c0,2.5-0.1,5,0,7.6c0.1,2.4-0.8,4.4-2.1,6.2
		c-0.6,0.9-1.3,1.8-2,2.6c-0.3,0.3-0.9,0.8-1.2,0.7c-0.3-0.1-0.8-0.7-0.8-1.2c-0.1-2.3-0.1-4.7-0.1-7c0-2,0.1-4,0.1-6
		c0-2.4-3-4.6-5-3.5c-1.2,0.6-2.4,1.5-3,2.6c-1.2,2.1-2.1,4.4-3.1,6.6c-0.2,0.4-0.4,0.7-0.6,1c-0.1,0-0.3,0-0.4-0.1
		c-0.1-0.6-0.2-1.3-0.2-1.9c0-2.1,0.1-4.2,0.1-6.4c0-1-1.5-2.1-2.9-2.1c-1.3,0.1-1.1,1.1-1.1,1.9c0,4.2,0.1,8.4,0,12.6
		c0,1.5-0.3,3-0.7,4.5c-0.1,0.5-1,1.2-1.5,1.2c-0.5,0.1-1.4-0.5-1.7-1c-0.5-1-0.9-2.1-0.9-3.2c-0.1-4.3,0-8.6,0-12.9
		c0-0.8,0.1-1.7-0.9-2c-1-0.3-2.1-1-3.1,0.1c-0.5,0.5-0.9,0.5-1.4,0.1c-0.3-0.3-0.7-0.5-1.1-0.8c-1.1-0.8-3.7-0.8-4.8-0.1
		c-2,1.4-3.4,3.2-3.9,5.5c-0.4,2.1-0.7,4.2-1,6.2c-0.3,2.5-1.2,4.7-2.9,6.5c-1,1-2,0.9-2.6-0.3c-0.4-0.8-0.7-1.7-0.7-2.6
		c0-5,0-10.1,0.1-15.1c0-1.4,0.4-1.7,1.8-1.7c1.2,0,2.4,0,3.6-0.1c1,0,1.6-0.5,1.6-1.6c0-1.1-0.7-1.3-1.6-1.3
		c-1.3,0-2.6-0.1-3.8-0.1c-0.9,0-1.4-0.5-1.3-1.5c0.1-1.1,0.1-2.2,0.2-3.4c0-1-0.3-1.8-1.3-2.1C60.8,1,60.3,1,59.8,1
		c-1.6-0.1-1.9,0.3-2,1.8c-0.1,1.2-0.1,2.3-0.2,3.5c-0.1,1.3-0.5,1.6-1.8,1.6c-0.8,0-1.6-0.1-2.4-0.1c-0.9,0.1-1.5,0.9-1.5,2.1
		c0,1,0.7,1.2,1.4,1.2c0.8,0,1.5,0,2.3,0c1.4,0,1.7,0.2,1.7,1.7c0,2.5-0.1,5,0,7.6c0.1,2.5-0.7,4.7-2,6.8c-0.2,0.4-0.5,0.7-0.8,1
		c-0.7,0.6-1.2,0.4-1.2-0.4c0-2.4-1.4-3.9-3-5.3c-1-0.8-2.1-1.6-3.1-2.4c-0.8-0.6-0.9-1.2-0.3-2.1c0.7-1,1.2-2.2,1.5-3.4
		c0.4-1.4-0.4-2.2-1.8-2.3c-3.3-0.4-6.1,4.3-4.6,6.7c0.5,0.8,0.7,1.7,0.2,2.6c-1.6,2.8-3.3,5.6-5,8.3c-0.2,0.4-0.9,0.8-1.3,0.7
		c-0.4-0.1-0.8-0.8-0.9-1.2c-0.1-2.3-0.1-4.7-0.1-7c0-2,0.1-4,0.1-6c0-2.5-3.1-4.6-5.1-3.5c-1.1,0.6-2.3,1.6-3,2.7
		c-1.2,2-2,4.3-3,6.5c-0.2,0.3-0.4,0.7-0.6,1c-0.1,0-0.3-0.1-0.4-0.1c-0.1-0.6-0.2-1.2-0.2-1.8c0-2,0-4.1,0.1-6.1
		c0-1.4-1.1-2.4-2.8-2.4c-1.5,0-1.2,1.3-1.2,2.1c0,3.9,0,7.8,0,11.8c0,2.1,0,4.2,0.1,6.4c0.1,1.5,1.1,2.4,2.5,2.4
		c1.2,0,1.6-0.4,1.9-2.1c0.8-4.7,2.2-9.2,4.4-13.4c0.4-0.8,1-1.6,1.6-2.4c0.2-0.3,0.7-0.3,1.1-0.5c0.1,0.4,0.3,0.7,0.3,1.1
		c-0.1,2-0.2,4.1-0.3,6.1c-0.2,2.9-0.2,5.8,0.6,8.7c0.5,2,2.1,2.8,3.9,2c0.8-0.4,1.7-0.9,2.2-1.6c1.4-1.7,2.7-3.6,3.9-5.4
		c1-1.5,1.8-3.1,2.8-4.6c0.4-0.6,0.9-1.1,1.5-0.5c1.3,1.4,2.5,2.8,3.6,4.3c0.9,1.4,0.6,3.3-0.4,4.3c-0.9,0.9-2.2,0.7-3.8-0.4
		c-0.3-0.2-0.7-0.4-1.1-0.5c-0.3-0.1-0.9-0.1-1,0.1c-0.5,0.7-1.2,1.5-1.3,2.3c0,0.6,0.9,1.4,1.6,1.7c5.7,2.1,10.8-0.1,13.4-5.6
		c0.2-0.4,0.6-0.6,0.8-0.9c0.3,0.4,0.6,0.7,0.8,1.1c0.2,0.6,0.2,1.2,0.5,1.7c0.5,1.1,1,2.3,1.9,3.1c1.6,1.7,3.8,1.7,5.4,0.1
		c0.9-0.9,1.6-2.1,2.4-3.1c0.3-0.3,0.7-0.5,1-0.7c0.2,0.3,0.5,0.6,0.6,1c0.7,2.9,4.3,4.9,7,3.8c1.5-0.7,2.6-1.6,3.7-2.8
		c0.9-1,1.2-0.9,1.6,0.2c0.2,0.4,0.3,0.7,0.6,1c1.6,1.9,4,2.3,6.6,1.1c0.4-0.2,1.1-0.2,1.5,0c1.9,1.1,3,0.6,3.4-1.5
		c0.8-4.7,2.2-9.2,4.4-13.4c0.5-0.9,1.1-1.7,1.8-2.5c0.2-0.2,0.7-0.3,1-0.4c0.1,0.3,0.3,0.7,0.3,1c-0.1,2-0.2,4.1-0.3,6.1
		c-0.2,3-0.2,6,0.6,8.9c0.4,1.3,1.7,2.5,2.7,2.2c2-0.5,3.9-1.5,5-3.4c0.6-1.1,1.5-2.1,2.2-3.1c0.1,0,0.3,0.1,0.4,0.1
		c0.3,1,0.5,2.1,0.8,3.1c0.7,2,2,3.6,4.2,3.8c1.9,0.2,3.2-0.9,4.3-2.3c0.8-1,1-1,1.9,0c2,2.4,4.8,2.8,7.4,1.1c0.5-0.3,0.8-0.8,1.3-1
		c0.4-0.2,0.8-0.2,1.3-0.3c0,0.5,0.1,1.1-0.2,1.4c-0.5,0.7-1.2,1.4-1.9,2c-2.3,2-4.5,4.1-6.1,6.7c-1.3,2.1-1.7,4.3-0.2,6.5
		c1.2,1.7,3.9,2.7,6.1,2.2c2.7-0.6,5-3.2,5.7-6c0.9-3.8,1-7.6,0.7-11.4c0-0.6,0.1-1.4,0.5-1.9c2.5-2.9,4.4-6.1,6-9.5
		c0.6-1.4,1.2-2.8,1.9-4.1c0.4-0.9,1.9-1.2,3-0.9c0.8,0.3,0.8,0.9,0.7,1.7c-0.2,3-0.5,6-0.4,8.9c0,1.4,0.6,2.9,1.3,4
		c1.8,2.8,5.2,4,7.8,0.7c0.7-1,1.3-1,2,0c2.3,3.1,6.8,2.4,8.9-0.4c0.3-0.3,0.6-0.6,0.9-0.9c0.7-0.5,1.1-0.4,1.4,0.4
		c1.2,3.2,4.8,3.9,7.1,1.3c0.7-0.8,1.1-0.8,1.6,0.2c0.5,1.1,2.2,1.8,3.5,1.4c1.2-0.3,1.4-1.3,1.5-2.4c0.1-4.3,0.5-8.6,2.3-12.6
		c0.2-0.4,0.7-0.8,1-1.1c0.2,0.5,0.6,0.9,0.6,1.4c0.3,2.7,0.4,5.5,0.7,8.2c0.1,1.2,0.5,2.3,1,3.4c0.5,1.1,1.8,1.7,2.9,1.4
		c1.2-0.3,1-1.4,1.1-2.2c0.7-3.4,1.3-6.8,2.1-10.2c0.2-0.7,0.8-1.3,1.2-2c0.1,0,0.2,0.1,0.4,0.1c0,0.4,0.1,0.8,0.1,1.2
		c0,1.3-0.1,2.6,0,4c0.2,2.7,0,5.4,1.3,7.9c0.9,1.7,2.2,2.8,4.1,2.9c1.5,0.2,2.8-0.6,3.5-1.9c0.6-1.2,0.9-2.6,1.2-4
		C208.5,28.5,208.2,27.9,208.1,27.3z M78.9,29.8c-0.3,0.9-1.5,1.7-2.4,2.3c-0.3,0.2-1.2,0-1.5-0.3c-0.6-0.6-1.3-1.4-1.5-2.2
		c-1-3.5-0.7-7,0.1-10.4c0.2-0.9,0.6-1.8,1.3-2.4c0.7-0.6,1.8-1.4,2.5-1.2c0.9,0.3,1.9,1.3,2.3,2.2c0.6,1.4,0.6,3,1,4.9
		C80.1,24.9,79.7,27.4,78.9,29.8z M131.8,29.4c-0.2,0.6-0.6,1.1-1,1.6c-0.6,0.7-1.5,1.6-2.4,1.1c-0.9-0.5-1.8-1.4-2.2-2.3
		c-0.5-1.6-0.6-3.3-0.9-4.9c0.2-2.8,0.5-5.4,2.1-7.8c1.4-2.2,3.4-2.2,4.8,0.1c0.3,0.5,0.6,1.2,0.7,1.8
		C133.1,22.5,133.2,26,131.8,29.4z M132.6,46.9c-0.3,0.9-1.1,1.8-1.9,2.5c-0.8,0.7-1.7,0.4-2.6-0.2c-0.9-0.6-1.3-1.6-1-2.6
		c0.3-1.2,0.7-2.5,1.4-3.5c1.1-1.7,2.5-3.3,3.9-4.9c0.2-0.2,0.7-0.4,0.8-0.3c0.2,0.2,0.4,0.6,0.4,0.9c0.1,0.6,0,1.3,0,1.9
		c0.1,0,0.1,0,0.2,0C133.4,42.8,133.2,44.9,132.6,46.9z M168.3,29.9c-0.2,0.4-0.5,0.8-0.8,1.2c-2,2.3-3.7,1.1-4.4-1
		c-0.5-1.6-0.7-3.3-0.7-4.9c-0.1-1.5,0-3.1,0.3-4.6c0.3-1.3,0.9-2.7,1.7-3.8c0.5-0.6,1.6-1.1,2.5-1.1c1.3,0.1,2,1.2,2.3,2.4
		c0.4,1.4,0.5,2.9,0.7,4.1C169.6,24.9,169.6,27.5,168.3,29.9z"/>
	<path class="st0" d="M14.1,3.5c0-0.7-0.6-1.9-1.2-2.1C11.3,0.6,9.6,0.6,8,1.6c-2.3,1.5-4.1,3.5-5.4,6c-0.8,1.5-1.7,3-2,4.5
		c-0.3,1.6-0.5,3.3,0.5,5C2,18.6,3,19.9,4.6,20.7c0.4,0.2,0.8,0.1,1.2,0.1c0-0.4,0.1-0.9-0.1-1.2C3.6,16,4.3,12.3,5.6,8.7
		c0.5-1.4,1.5-2.7,2.3-4C8.1,4.3,8.7,4.2,9.1,4c0.2,0.4,0.5,0.8,0.5,1.2c0,8.2,0,16.4-0.1,24.6c0,2.3-0.5,4.6-0.7,6.9
		c-0.1,0.7,0,1.5,0,2.2c0.7-0.3,1.6-0.6,2.1-1.1c2-1.7,2.8-4.1,2.9-6.6c0.2-4.9,0.4-9.8,0.5-14.7c-0.1,0-0.1,0-0.2,0
		C14.1,12.2,14.2,7.8,14.1,3.5z"/>
</g>
</svg>
